# xmcd
#
# Track frame offsets: 
#        150
#        11122
#        27222
#        37770
#        50670
#        59447
#        72067
#        86575
#        104405
#        116490
#        125870
#        138280
#        148910
#        159710
#        174830
#        189077
#        193880
#        208317
#        223887
#        237952
#        249905
#        267395
#        283537
#        297962
#        329362
#
# Disc length: 4785 seconds
#
# Revision: 6
# Processed by: cddbd v1.5.2PL0 Copyright (c) Steve Scherf et al.
# Submitted via: ExactAudioCopy v1.3
#
DISCID=8212af19
DTITLE=Various Artist - The BOSSA NOVA
DYEAR=2002
DGENRE=Bossa Nova
TTITLE0=Nara Leao - Garota de Ipanema
TTITLE1=Antonio Carlos Jobim&Eils Regina - Aguas de Marco
TTITLE2=Sylvia Telles - Samba de Uma Nota So
TTITLE3=Tamba Trio - Mas Que Nada
TTITLE4=Os Cariocas - So Danco Samba
TTITLE5=Quarteto em Cy - Agua De Beber
TTITLE6=Baden Powell - Samba Do Aviao
TTITLE7=Antonio Carlos Jobim&Elis Regina - Corcovado
TTITLE8=Vinicius de Moraes and Toquinho - Carta ao Tom 74
TTITLE9=Nara Leao - Chega de Saudade
TTITLE10=Os Cariocas - Desafinado
TTITLE11=Doris Monteiro - Samba de Verao
TTITLE12=Tamba Trio - Nos e o Mar
TTITLE13=Lucio Alves - O Barquinho
TTITLE14=Toots Thielemans and Elis Regina - Wave
TTITLE15=Carlos Lyra - Voce e Eu
TTITLE16=Os Gatos - E Nada Mais
TTITLE17=Antonio Carlos Jobim - So Tinha de Ser com Voce
TTITLE18=Dick Farney - Fotografia
TTITLE19=Nara Leao - Insensatez
TTITLE20=Quateto em Cy - Minha Namorada - Primavera
TTITLE21=Joao Donato - Lugar Comum
TTITLE22=Dorival Caymmi and Antonio Carlos Jobim - Saudades da Bahia
TTITLE23=Vinicius de Moraes - Samba da Bencao
TTITLE24=Joao Gilberto with Caetano and Gil - Aquarela do Brasil
EXTD=
EXTT0=
EXTT1=
EXTT2=
EXTT3=
EXTT4=
EXTT5=
EXTT6=
EXTT7=
EXTT8=
EXTT9=
EXTT10=
EXTT11=
EXTT12=
EXTT13=
EXTT14=
EXTT15=
EXTT16=
EXTT17=
EXTT18=
EXTT19=
EXTT20=
EXTT21=
EXTT22=
EXTT23=
EXTT24=
PLAYORDER=
